<svg xmlns="http://www.w3.org/2000/svg" viewBox="0 0 302.78 119.11"><defs><style>.cls-1{fill:#fff;}</style></defs><title>Asset 1@8x-100</title><g id="Layer_2" data-name="Layer 2"><g id="Layer_1-2" data-name="Layer 1"><path class="cls-1" d="M66.52,20A31.47,31.47,0,1,0,98,51.52,31.47,31.47,0,0,0,66.52,20Zm26,35.29c.32-.74.14-1.32.44-1.43s.68.24.88.62,0,.9-.22,2.12c-.22,1.38,0,1.71-.37,2.27a1.77,1.77,0,0,1-1.28.73,1.13,1.13,0,0,1-.73-.18c-.59-.45-.5-1.76,0-2.63S92.19,56.16,92.55,55.34ZM46.47,29.46a51.53,51.53,0,0,1,5.46-4.19,54.91,54.91,0,0,1,6.95-2.88.35.35,0,0,1,.4.53,5.74,5.74,0,0,0-.53.83c-.18.42-.6,1.63-.88,1.52s-1.13,1.1-1.34,1.27a8.91,8.91,0,0,1-2.26.25c-.67,0-2.19,1.06-2.93,1a24.91,24.91,0,0,0-4.68,1.94A.17.17,0,0,1,46.47,29.46Zm2.35,4c-.4,0-1.18.61-1.37.61A2.24,2.24,0,0,1,47,34c-.25-.16,0-.44.16-.6s.49-.65.9-.67,1,.22,1.15-.17.42-1.12.81-1.12.71,0,.64.39-.78,1.34-.86,1.83-.48,1.49-1,1.49-1.67.07-1.67-.17.66-.46,1-.68S49.22,33.47,48.82,33.47ZM65.59,69.1c-.1.47-.58,1.57-.79,2.31a3.91,3.91,0,0,1-.85,1.76c-.28.15-.3.32-.72.28S62,73.29,62,72.6s.39-1.21.33-1.54S62,70.38,62,70s.45-.87,1.29-.94,1.27-.4,1.27-1-.09-.89.21-.79A2.8,2.8,0,0,1,65.59,69.1ZM81.17,57.61c-.15.29-.43.63-.59.57s-.09-.29-.15-.66c-.14-1-.64-1.29-.46-1.62a.8.8,0,0,1,1-.24C81.49,55.91,81.5,57,81.17,57.61Zm4.29-6.22c-.1-.2-.64-2.3-1.15-2.3s-1.76.34-2,.76-1.71,2-1.91,2.32-.86,1.12-.86,1.83a4.5,4.5,0,0,1-.83,2.32c-.27.12-.71,0-.76-.29s-.71-2.76-1.15-3.06a2.24,2.24,0,0,1-.76-1.46c0-.35-.1-1.28-.56-1.3s-1.81,0-1.88-.29-.61-1.56-1.25-1.56-1.49.42-2.25.17-.71-.61-1.86-.51a6.35,6.35,0,0,1-2.59-.66c-.51-.12-1.27-.24-1.27.2s.44,1,.44,1.47.29,1.05.76,1.05,2-.68,2.3-.68.51.68.71.81a1.66,1.66,0,0,1,.46,1.33,2.7,2.7,0,0,1-1.61,1.83c-.78.29-.9.59-1.66.59s-2.54,1.2-3,1.2-1.76-.37-1.86-1.08a7.39,7.39,0,0,0-.71-2.54,10.54,10.54,0,0,1-1.34-2.11,18.58,18.58,0,0,0-1.69-2.32c-.15-.15-.66-.61-.81-.32a3.06,3.06,0,0,0-.12,1.69,5.59,5.59,0,0,0,.81,1.78c.2.15,1.49,1.17,1.49,1.78a3.82,3.82,0,0,0,.46,2.2c.44.51,1.54,1.39,1.83,1.83s1.42,2,2,1.76,2-2.13,2.3-1.71-.83,1.61-1.1,2.64.07,1.44-.46,1.81S61.48,62.59,61,63s-1.91,1-1.91,2.05.49,1.25.56,1.71a14.67,14.67,0,0,1,.07,2.13c0,.61-1.08,1.42-1.54,1.59s-.86.39-.88.78.37,1.05.37,1.49a5.89,5.89,0,0,1-2.27,2.49,5.56,5.56,0,0,1-2.4.83,34.46,34.46,0,0,1-3-2.49,3.73,3.73,0,0,1-1.37-1.93c-.07-.39-1.37-1.83-1.34-2.74s.46-3,0-4.13-1.25-2.2-1.25-3.25a5.71,5.71,0,0,0-.66-2.89c-.39-.46-1.54-.83-1.61-1s-.61-.9-1-.93a5.23,5.23,0,0,1-2.57-1.05,9.21,9.21,0,0,1-1.61-2.74,19.43,19.43,0,0,1-.71-3.69,5.76,5.76,0,0,1,.68-2.49,4.18,4.18,0,0,1,1.08-2.25c.81-.73,3.64-2,4-2.52s.81-.39,1.3-.2a2.27,2.27,0,0,0,1.49.39c.86-.07,2-.66,2,0A5.62,5.62,0,0,0,48.62,44c.17.29.88,1.32,1.37,1.39s2,.59,2.27.39.34-.71.86-.61,1.44.88,2,.83,2.42,0,2.71-.86.78-1.27.42-1.52-2.2-.22-2.35-.37-.66-1.25-.2-1.44a7.56,7.56,0,0,1,2.23-.46c.76,0,2.86.17,2.93-.15s-1.17-.68-1.08-1.34,1-1.27.34-1.27S58.87,40,58.52,40s-.51-1.54-1-1.39-.83,1.25-1.1,1.54-.78,1.37-1.3,1.37-1.37-.32-1.52.34-.64,1-.81.86a3,3,0,0,1-.49-1.59c0-.59,0-1.61-.37-1.74s-1-.17-1,.2.71,1.69.54,1.91a1.51,1.51,0,0,1-1.08.59c-.44,0-.66-.37-.42-.59s.83-.24.66-.64-1-1.15-1-1.49-.1-.81-.71-.49a10.43,10.43,0,0,1-2.4,1.08c-.44,0-.93.59-1.34.68s-2,.51-2.05.17-.46-1.27-.2-1.71,1-1.22,1.59-1.22a5,5,0,0,0,1.64-.2c.51-.17.88-1,1.08-1.52s1.11-.61,1.52-.61,1.63,0,1.68-.36a3.13,3.13,0,0,1,1.86-1.28c.49,0,1.2.61,1.61.61a8.55,8.55,0,0,0,2.3-.64c.46-.24,2.25.07,2.3-.32s-.68-.66-1.1-.66-.07-.61.22-.68,1-.39.78-.76-1.69-.1-2.13.24-1,2-1.71,2a3.58,3.58,0,0,1-1-.1,1.81,1.81,0,0,1-.39-.93c-.07-.22-1.08-.2-1.08-.61s1.15-.9,1.71-1.05a11.56,11.56,0,0,0,2.05-.68c.59-.3.22-.71,1.3-.66s3.86,0,4.38.1.71,0,.71.57-.64.73-1.2.73-.61.1-.37.42a.93.93,0,0,0,1.12.27c.49-.17,2.27-.93,2.89-1.22s2.25,0,2.64-.19,1-1.35,1.42-1.35,1.42,2.1,1.74,2.1,0-2.32.49-2.71a14.88,14.88,0,0,1,2.35-1.17c.22-.1.9-.76,1.22-.76s1.08.59,1.56.56,1.83-1.25,2.4-1.27,4.72,3,5.11,3.23.81,1.3,1.27,1.34a3.56,3.56,0,0,1,1.86,1.3,20.4,20.4,0,0,1,1.78,2.84c.12.49.2,1.66.66,2.08s1.47,1.74,1.39,2.18-.15.66-.46.54-1-1.59-1.47-1.59-.93.29-.61.64,1.42,1.25,1.47,1.69a2.27,2.27,0,0,0,.56,1.27,5.61,5.61,0,0,1,1.54,2.52c0,.78,0,2.18-.42,2.45a12.05,12.05,0,0,0-1.56,1.88,3.91,3.91,0,0,0-.46,1.59,2.42,2.42,0,0,0,.24,1.3c.22.32.88.9.88,1.27a2.87,2.87,0,0,1-.56,1.27c-.27.42-.44.32-.61.24s-.78-1-1.05-.81A2,2,0,0,0,88,54.76c.29.44,1.64,1.2,1.64,1.52s.22,1.42,0,1.42a1.65,1.65,0,0,1-1.25-.88C88,56.18,87,55.23,87,54.76s-.07-3-.15-3.52-.34-.59-.49-.59S85.57,51.58,85.47,51.39Zm.86,6.44c-.18-.42-.25-1.06.07-1.32a.73.73,0,0,1,.66-.07c.56.19.48.85,1.13,1.54.4.42.5.25,1,.7.25.23,1.23,1.12,1,2-.15.47-.69.94-1.1.84-.62-.15-.25-1.4-1.24-2.41C87.17,58.44,86.63,58.52,86.33,57.83Zm7.1,7.43c-.48,1.48-1.39,1.83-2.71,3.33-2,2.24-2.33,4.19-2.74,4.06s-.23-1.74,0-2.82a6,6,0,0,1,1.28-2.67c1.25-1.42,2.34-1,3.37-2.49.63-.89.72-1.75.88-1.72S93.78,64.16,93.43,65.25Zm-1.28-2.89a2.53,2.53,0,0,1-1.5.11c-.28-.1-.78-.36-.77-.66s.91-.79,1.72-.8.92.28,1.46.11.78-.61,1-.51.13.51,0,.84C93.71,62,93.12,62.11,92.15,62.36Z"/><path class="cls-1" d="M67.26,87.8a13.87,13.87,0,0,0-6.89,2.34c-1.49,1.23-2.92,2.21-2.6,3.05a3.4,3.4,0,0,0,3.05,1.95c1.56,0,3.9-2,5.39-2S75.77,95.79,78,100s1.62,5.85,2.66,5.91a73.1,73.1,0,0,0,10.66-1.56c5.26-1,34-10,34-27.35,0-13.75-15.3-21.72-24.91-25.52-.2-.08-.34.16-.1.27,8.15,3.66,20,11,20,22.59,0,12.77-15.38,19.91-26.83,23.45a.49.49,0,0,1-.32-.93C104,92.7,118.14,85.41,118.14,75.7c0-11-10.34-17.26-17.22-20.18-.47-.2-.74.21-.18.51,5.76,3.07,13.72,8.88,13.72,17.51,0,11.28-16.17,17.05-26,19.52a.33.33,0,0,1-.19-.63C97.41,89.31,112,82.87,112,73.67c0-6.43-6.57-11.48-11.82-14.49-.17-.1-.64.16-.2.48,3.64,2.65,7.54,6.68,7.54,11.85,0,13.23-24.9,18.24-29.06,18.24S71,87.8,67.26,87.8Z"/><path class="cls-1" d="M81,105.52c.08,1.36,1.55,6-2.31,6-3,0-1.81-1.55-1.81-1.55a3,3,0,0,0,1.66.52c2.71,0,1.49-5.26,1.49-5.26"/><path class="cls-1" d="M73,115.32a2.31,2.31,0,0,0,1.29.33c.83,0,3.09-.28,3.09-3.49a24.45,24.45,0,0,0-1.68-8.63.24.24,0,0,0-.46.15,29.44,29.44,0,0,1,1.09,7.26c0,3.29-1,3.59-1.93,3.59a4,4,0,0,1-1.17-.19"/><path class="cls-1" d="M69.09,117.39a2.31,2.31,0,0,0,1.29.33c.83,0,3.09-.28,3.09-3.49A24.2,24.2,0,0,0,72,106.14a.27.27,0,0,0-.52.16,28.57,28.57,0,0,1,.95,6.72c0,3.29-1,3.59-1.93,3.59a4,4,0,0,1-1.17-.19"/><path class="cls-1" d="M65.45,118.35a.54.54,0,0,1,.62-.41,3.8,3.8,0,0,0,.68.06c.89,0,1.93-.3,1.93-3.59a27.11,27.11,0,0,0-.29-3.38.3.3,0,0,1,.59-.11,23.87,23.87,0,0,1,.75,4.7c0,3.21-2.26,3.49-3.09,3.49a2.75,2.75,0,0,1-.81-.12.55.55,0,0,1-.38-.65Z"/><path class="cls-1" d="M61.85,114.2c0-1.85.3-4.69,2-4.69s1.59,1.61,1.59,2.13A18.2,18.2,0,0,0,65,114.2c0,.88.26,1.94.26,3a1,1,0,0,1-1.11,1C63.62,118.24,61.85,117.67,61.85,114.2Z"/><path class="cls-1" d="M61.37,116.14a.46.46,0,0,1-.55.61c-1-.3-2.43-1.27-2.43-4.37,0-4.73.89-7.12,2.79-7.12,1.38,0,1.71,1.66,1.71,2.08,0,1.24-2,3.08-2,6.05A7.35,7.35,0,0,0,61.37,116.14Z"/><path class="cls-1" d="M57.74,114.23a.59.59,0,0,1-.81.64c-.86-.37-2-1.33-2-3.86,0-4.16,1.09-8.36,3-8.36,1.5,0,1.88.72,1.88,1.43s-2.28,2.26-2.28,7.18A18.92,18.92,0,0,0,57.74,114.23Z"/><path class="cls-1" d="M54.17,111.58a.4.4,0,0,1-.61.38c-.82-.49-2.1-1.7-2.1-4.37,0-3.94,1.7-5.18,2.44-5.18s1.53.29,1.53,1-.74,1.26-1.16,4.12A19.75,19.75,0,0,0,54.17,111.58Z"/><polygon class="cls-1" points="25.26 26.13 25.84 27.13 27 27.13 26.42 28.14 27 29.14 25.84 29.14 25.26 30.15 24.68 29.14 23.52 29.14 24.1 28.14 23.52 27.13 24.68 27.13 25.26 26.13"/><polygon class="cls-1" points="32.96 11.35 33.55 12.36 34.7 12.36 34.13 13.36 34.7 14.37 33.55 14.37 32.96 15.37 32.38 14.37 31.22 14.37 31.8 13.36 31.22 12.36 32.38 12.36 32.96 11.35"/><polygon class="cls-1" points="37.12 4.88 37.7 5.89 38.87 5.89 38.28 6.89 38.87 7.9 37.7 7.9 37.12 8.9 36.54 7.9 35.38 7.9 35.96 6.89 35.38 5.89 36.54 5.89 37.12 4.88"/><polygon class="cls-1" points="45.87 13.78 46.45 14.78 47.61 14.78 47.03 15.79 47.61 16.8 46.45 16.8 45.87 17.8 45.29 16.8 44.13 16.8 44.71 15.79 44.13 14.78 45.29 14.78 45.87 13.78"/><polygon class="cls-1" points="16.29 40.51 16.86 41.51 18.03 41.51 17.45 42.52 18.03 43.52 16.86 43.52 16.29 44.53 15.71 43.52 14.54 43.52 15.12 42.52 14.54 41.51 15.71 41.51 16.29 40.51"/><polygon class="cls-1" points="1.74 22.8 2.32 23.8 3.48 23.8 2.9 24.81 3.48 25.81 2.32 25.81 1.74 26.82 1.16 25.81 0 25.81 0.58 24.81 0 23.8 1.16 23.8 1.74 22.8"/><polygon class="cls-1" points="107.6 26.13 107.02 27.13 105.86 27.13 106.44 28.14 105.86 29.14 107.02 29.14 107.6 30.15 108.18 29.14 109.34 29.14 108.76 28.14 109.34 27.13 108.18 27.13 107.6 26.13"/><polygon class="cls-1" points="99.9 11.35 99.32 12.36 98.16 12.36 98.74 13.36 98.16 14.37 99.32 14.37 99.9 15.37 100.48 14.37 101.64 14.37 101.06 13.36 101.64 12.36 100.48 12.36 99.9 11.35"/><polygon class="cls-1" points="95.74 4.88 95.16 5.89 94 5.89 94.58 6.89 94 7.9 95.16 7.9 95.74 8.9 96.32 7.9 97.48 7.9 96.9 6.89 97.48 5.89 96.32 5.89 95.74 4.88"/><polygon class="cls-1" points="86.99 13.78 86.41 14.78 85.25 14.78 85.83 15.79 85.25 16.8 86.41 16.8 86.99 17.8 87.57 16.8 88.73 16.8 88.15 15.79 88.73 14.78 87.57 14.78 86.99 13.78"/><polygon class="cls-1" points="116.58 40.51 116 41.51 114.83 41.51 115.42 42.52 114.83 43.52 116 43.52 116.58 44.53 117.16 43.52 118.32 43.52 117.74 42.52 118.32 41.51 117.16 41.51 116.58 40.51"/><polygon class="cls-1" points="131.12 22.8 130.54 23.8 129.38 23.8 129.96 24.81 129.38 25.81 130.54 25.81 131.12 26.82 131.7 25.81 132.86 25.81 132.28 24.81 132.86 23.8 131.7 23.8 131.12 22.8"/><polygon class="cls-1" points="66.4 7.43 65.64 5.68 63.93 6.54 64.48 4.71 62.62 4.27 64.22 3.22 63.08 1.69 64.97 1.91 65.08 0 66.4 1.39 67.71 0 67.82 1.91 69.72 1.69 68.58 3.22 70.17 4.27 68.31 4.71 68.86 6.54 67.15 5.68 66.4 7.43"/><path class="cls-1" d="M57.4,90.33C43.08,88,25.57,82.76,25.57,70.84c0-4.61,4.33-8.65,7.85-11.18a.33.33,0,0,0-.36-.56c-4,2.25-9.05,6.27-9.05,12.2C24,84.28,42.53,89.18,57.4,91,57.94,91.09,58,90.43,57.4,90.33Z"/><path class="cls-1" d="M10.22,76.09c0,16.92,23,25.21,40.23,29.05.81.18.47,1,0,.89C32.54,103,8,95.29,8,76.09,8,64,20.36,56.26,32.32,51.55c.44-.17.69.32.25.51C21.39,56.87,10.22,64.49,10.22,76.09Z"/><path class="cls-1" d="M32.49,55.12c-8.8,3.68-18.2,10-18.2,20.33,0,12,13.7,18.36,24.87,21.54.71.2,1-.35.29-.58C28.59,92.88,15.34,86.34,15.34,75.53c0-9.61,8.88-16,17.31-19.85C33,55.5,32.76,55,32.49,55.12Z"/><path class="cls-1" d="M44.37,93.23C33,90.64,19.06,85.1,19.06,73.46a12.8,12.8,0,0,1,3.34-8.37c.53-.62,1-.11.62.34a13.24,13.24,0,0,0-2.81,8c0,10.63,13.34,16.34,24.38,19.24C45,92.81,44.8,93.33,44.37,93.23Z"/><path class="cls-1" d="M162.58,35.41a2.94,2.94,0,0,0,2.29-1.18,1.81,1.81,0,0,1,3.09,0,2.8,2.8,0,0,0,4.58,0,1.81,1.81,0,0,1,3.08,0,2.8,2.8,0,0,0,4.57,0,2,2,0,0,1,1.54-.86v-1a2.94,2.94,0,0,0-2.29,1.19,1.81,1.81,0,0,1-3.08,0,2.8,2.8,0,0,0-4.57,0,1.81,1.81,0,0,1-3.08,0,2.81,2.81,0,0,0-4.58,0,2,2,0,0,1-1.54.86Z"/><path class="cls-1" d="M161.95,19.66h3.58a4.29,4.29,0,0,1,3.41,1.3,4.75,4.75,0,0,1,1.23,3.3,4.34,4.34,0,0,1-4.47,4.65h-3.76Zm3.58,7.13c1,0,1.68-1,1.68-2.51a3.56,3.56,0,0,0-.42-1.76,1.37,1.37,0,0,0-1.26-.76h-.74v5Z"/><path class="cls-1" d="M176.46,28.92l-1.36-3.52h-.89v3.52h-2.84V19.66h4.84c2.09,0,3.36,1.05,3.36,2.82a2.41,2.41,0,0,1-1.64,2.41l1.66,4Zm-1-5.51c.76,0,1.19-.33,1.19-.89s-.4-.89-1.1-.89h-1.3v1.78Z"/><path class="cls-1" d="M183.32,28.92h-2.57V26.45h2.57Z"/><path class="cls-1" d="M195.75,19.66a4.64,4.64,0,0,1,3.29.88,3.26,3.26,0,0,1,1.28,2.66,3,3,0,0,1-2.49,3,3.57,3.57,0,0,1,1.75.84,3.44,3.44,0,0,1,1.11,2.53,3.66,3.66,0,0,1-1.25,2.74,5.36,5.36,0,0,1-3.68,1h-6.4V19.66Zm-3.19,5.43H195a2.22,2.22,0,0,0,1.44-.31,1.53,1.53,0,0,0,.6-1.24,1.39,1.39,0,0,0-.47-1.09c-.35-.33-.6-.37-1.79-.37h-2.2Zm0,5.76H195a2.91,2.91,0,0,0,1.58-.29,1.73,1.73,0,0,0,.72-1.4c0-1-.78-1.63-2.16-1.63h-2.61Z"/><path class="cls-1" d="M206,33.39h-3.23V19.66h6a5.1,5.1,0,0,1,3.56.93,4.2,4.2,0,0,1,1.44,3.19,4,4,0,0,1-1,2.68,3.83,3.83,0,0,1-1.34.89l2.53,6.05h-3.56L208.28,28H206Zm0-7.78h2c1.07,0,1.32,0,1.71-.29a1.82,1.82,0,0,0,.8-1.5,1.75,1.75,0,0,0-.64-1.36c-.41-.31-.66-.35-2-.35H206Z"/><path class="cls-1" d="M225.53,21.45a9.11,9.11,0,0,1,0,10.15,5.34,5.34,0,0,1-4.38,2,5.06,5.06,0,0,1-4.22-2,8.46,8.46,0,0,1-1.58-5.15,8.24,8.24,0,0,1,1.54-5,5.3,5.3,0,0,1,4.36-2A4.93,4.93,0,0,1,225.53,21.45Zm-6.2,1.81a8,8,0,0,0-.6,3.25c0,3,.84,4.47,2.55,4.47s2.45-1.46,2.45-4.45-.8-4.47-2.47-4.47A2,2,0,0,0,219.33,23.26Z"/><path class="cls-1" d="M239.75,33.39H237l-5.37-9.28c0,.23,0,.41,0,.47,0,.31,0,.51,0,.6v8.21h-2.49V19.66h3.46l4.67,8.09a9.06,9.06,0,0,1-.06-.91V19.66h2.49Z"/><path class="cls-1" d="M253.07,33.39h-2.76l-5.37-9.28c0,.23,0,.41,0,.47,0,.31,0,.51,0,.6v8.21h-2.49V19.66H246l4.67,8.09a9.06,9.06,0,0,1-.06-.91V19.66h2.49Z"/><path class="cls-1" d="M259.09,22.28V25.1h5.15v2.57h-5.15v3h6.54v2.72h-9.82V19.66h9.82v2.61Z"/><path class="cls-1" d="M270.78,33.39h-3.23V19.66h6a5.1,5.1,0,0,1,3.56.93,4.2,4.2,0,0,1,1.44,3.19,4,4,0,0,1-1,2.68,3.83,3.83,0,0,1-1.34.89l2.53,6.05h-3.56L273.09,28h-2.3Zm0-7.78h2c1.07,0,1.32,0,1.71-.29a1.82,1.82,0,0,0,.8-1.5,1.75,1.75,0,0,0-.64-1.36c-.41-.31-.66-.35-2-.35h-1.89Z"/><path class="cls-1" d="M282.33,22.52h-1.4V19.66h2.92v2.51L282,25.26h-1.11Z"/><path class="cls-1" d="M293.15,23.59A2.16,2.16,0,0,0,290.77,22c-1.19,0-1.87.45-1.87,1.21s.49,1.15,2,1.44a9.85,9.85,0,0,1,3.6,1.17A3.84,3.84,0,0,1,296.24,29a4.46,4.46,0,0,1-2,3.66,6.79,6.79,0,0,1-3.62.89,6.29,6.29,0,0,1-3.93-1.17A4.4,4.4,0,0,1,285,29.79l3-.68A2.52,2.52,0,0,0,290.77,31c1.36,0,2.2-.56,2.2-1.44s-.56-1.19-2.39-1.56a9.2,9.2,0,0,1-3.17-1.07,3.5,3.5,0,0,1-1.67-3.13,4.08,4.08,0,0,1,1.4-3.17,5.09,5.09,0,0,1,3.6-1.19,5.8,5.8,0,0,1,3.6,1,4.24,4.24,0,0,1,1.52,2.18Z"/><path class="cls-1" d="M167.88,90.43l-1.57-12.59h-5.54L159.4,90.43h-6.09l7-45.63h6.77l7.25,45.63Zm-3.21-26.2c-.14-1.16-.27-2.26-.41-3.21l-.48-4.72-.34-3.21-.14-1.37c-.07,1.57-.14,2.12-.27,3.35,0,.55-.21,2.6-.55,6.16l-.27,3-1,8.07h4.45Z"/><path class="cls-1" d="M178,90.43V44.8h6.84V84.61h8.55v5.81Z"/><path class="cls-1" d="M197.56,90.43V44.8h6.84V84.61H213v5.81Z"/><path class="cls-1" d="M209.47,75.45V70h10.74v5.47Z"/><path class="cls-1" d="M243.53,49.45c1.44,3.21,2.33,10.06,2.33,18.13,0,9-1,15.94-2.74,19a8.9,8.9,0,0,1-15.53-.34c-1.71-3.08-2.46-9.17-2.46-19.08s1-16.08,2.94-19a8.9,8.9,0,0,1,15.46,1.3ZM232.45,68.61c0,14,.48,16.69,3,16.69,1.5,0,2.19-1,2.6-3.35a126.31,126.31,0,0,0,.48-12.86c0-16.83-.34-19.15-3.08-19.15S232.45,52.33,232.45,68.61Z"/><path class="cls-1" d="M263.85,90.43l-6.09-20.18c-1.16-3.76-2.19-7.8-2.94-11.49l.07,1c.34,8.28.41,11,.48,16V90.43h-5.61V44.8h5.75l5.81,20.52c1.37,4.86,2.05,7.39,3.08,12-.34-6.91-.34-7.25-.55-16.28V44.8h5.54V90.43Z"/><path class="cls-1" d="M274,90.43V44.8h15.53v5.81h-8.69v13h6.29v5.81h-6.29V84.61h9.3v5.81Z"/><path class="cls-1" d="M296.06,78.39,294.9,44.8h7.32l-1.16,33.59Z"/><circle class="cls-1" cx="298.56" cy="86.56" r="4.23"/></g></g></svg>